<?xml version="1.0" encoding="UTF-8"?>
<svg version="1.1" xmlns="http://www.w3.org/2000/svg" width="32" height="32">
<path d="M0 0 C1.093125 0.185625 2.18625 0.37125 3.3125 0.5625 C6.93624133 1.2578068 6.93624133 1.2578068 10 0 C10.66 3.3 11.32 6.6 12 10 C11.34 10 10.68 10 10 10 C10.08746284 11.43861294 10.19565348 12.87597508 10.3125 14.3125 C10.37050781 15.11300781 10.42851562 15.91351563 10.48828125 16.73828125 C11.0876557 19.38742483 12.03626811 20.20473841 14 22 C14 22.66 14 23.32 14 24 C14.99 24.33 15.98 24.66 17 25 C13.02389214 27.71486934 8.86098023 27.22440753 4.25 27.125 C3.45722656 27.11597656 2.66445312 27.10695313 1.84765625 27.09765625 C-0.10169281 27.07417012 -2.05088575 27.03830137 -4 27 C-4 26.34 -4 25.68 -4 25 C-4.66 25 -5.32 25 -6 25 C-6 24.01 -6 23.02 -6 22 C-5.195625 21.62875 -4.39125 21.2575 -3.5625 20.875 C-0.82580534 19.29054775 -0.82580534 19.29054775 -0.4453125 16.80859375 C-0.2103265 14.53350205 -0.05272218 12.28622534 0 10 C-0.66 10 -1.32 10 -2 10 C-1.34 6.7 -0.68 3.4 0 0 Z " fill="#65412A" transform="translate(11,5)"/>
<path d="M0 0 C0.99 0.33 1.98 0.66 3 1 C2.835 1.9075 2.67 2.815 2.5 3.75 C1.71126689 9.13782475 1.91974077 14.56912556 2 20 C4.31 20.33 6.62 20.66 9 21 C9.33 20.34 9.66 19.68 10 19 C10.99 19.33 11.98 19.66 13 20 C13.33333333 21.33333333 13.66666667 22.66666667 14 24 C14.99 24.33 15.98 24.66 17 25 C13.02389214 27.71486934 8.86098023 27.22440753 4.25 27.125 C3.45722656 27.11597656 2.66445312 27.10695313 1.84765625 27.09765625 C-0.10169281 27.07417012 -2.05088575 27.03830137 -4 27 C-4 26.34 -4 25.68 -4 25 C-4.66 25 -5.32 25 -6 25 C-6 24.01 -6 23.02 -6 22 C-5.195625 21.62875 -4.39125 21.2575 -3.5625 20.875 C-0.82580534 19.29054775 -0.82580534 19.29054775 -0.4453125 16.80859375 C-0.2103265 14.53350205 -0.05272218 12.28622534 0 10 C-0.66 10 -1.32 10 -2 10 C-1.34 6.7 -0.68 3.4 0 0 Z " fill="#4D3434" transform="translate(11,5)"/>
<path d="M0 0 C1.32 0 2.64 0 4 0 C4 1.32 4 2.64 4 4 C4.66 4.33 5.32 4.66 6 5 C5.67 7.31 5.34 9.62 5 12 C2.69 12 0.38 12 -2 12 C-2 7.56486311 -1.13764351 4.26616316 0 0 Z " fill="#362222" transform="translate(15,14)"/>
<path d="M0 0 C0.66 0 1.32 0 2 0 C2.66 3.3 3.32 6.6 4 10 C3.34 10 2.68 10 2 10 C2.33 12.97 2.66 15.94 3 19 C2.67 19 2.34 19 2 19 C2 17.35 2 15.7 2 14 C1.01 13.67 0.02 13.34 -1 13 C-0.67 11.68 -0.34 10.36 0 9 C-0.66 9 -1.32 9 -2 9 C-2 8.01 -2 7.02 -2 6 C-1.34 6 -0.68 6 0 6 C0.33 5.34 0.66 4.68 1 4 C-1.97 3.505 -1.97 3.505 -5 3 C-4.360625 2.690625 -3.72125 2.38125 -3.0625 2.0625 C-1.06389179 1.1654837 -1.06389179 1.1654837 0 0 Z " fill="#6D523C" transform="translate(19,5)"/>
<path d="M0 0 C0.99 0 1.98 0 3 0 C3 0.66 3 1.32 3 2 C3.99 2.33 4.98 2.66 6 3 C2.02389214 5.71486934 -2.13901977 5.22440753 -6.75 5.125 C-7.54277344 5.11597656 -8.33554688 5.10695313 -9.15234375 5.09765625 C-11.10169281 5.07417012 -13.05088575 5.03830137 -15 5 C-15 4.34 -15 3.68 -15 3 C-15.66 3 -16.32 3 -17 3 C-17 2.34 -17 1.68 -17 1 C-11.06 2.485 -11.06 2.485 -5 4 C-4.67 3.01 -4.34 2.02 -4 1 C-4 1.66 -4 2.32 -4 3 C-2.68 3 -1.36 3 0 3 C0 2.01 0 1.02 0 0 Z " fill="#3D2B31" transform="translate(22,27)"/>
<path d="M0 0 C0.99 0.33 1.98 0.66 3 1 C2.855625 1.9075 2.71125 2.815 2.5625 3.75 C1.78452415 9.14026126 1.41887914 14.57239588 1 20 C-0.32 20.33 -1.64 20.66 -3 21 C-2.34 20.34 -1.68 19.68 -1 19 C-0.53993654 16.79749008 -0.53993654 16.79749008 -0.375 14.375 C-0.26285156 13.14910156 -0.26285156 13.14910156 -0.1484375 11.8984375 C-0.09945313 11.27195312 -0.05046875 10.64546875 0 10 C-0.66 10 -1.32 10 -2 10 C-1.34 6.7 -0.68 3.4 0 0 Z " fill="#AD8861" transform="translate(11,5)"/>
<path d="M0 0 C0 0.99 0 1.98 0 3 C0.66 3.33 1.32 3.66 2 4 C1.67 4.66 1.34 5.32 1 6 C-2.82097239 5.46930939 -5.06171403 4.50298434 -8 2 C-2.25 0 -2.25 0 0 0 Z " fill="#78503E" transform="translate(13,25)"/>
<path d="M0 0 C2.31 0.66 4.62 1.32 7 2 C6.67 3.32 6.34 4.64 6 6 C6 5.34 6 4.68 6 4 C5.34 4 4.68 4 4 4 C4 4.66 4 5.32 4 6 C2.35 5.67 0.7 5.34 -1 5 C-0.67 3.35 -0.34 1.7 0 0 Z " fill="#4C2B22" transform="translate(13,7)"/>
<path d="M0 0 C1.32 0 2.64 0 4 0 C3.67 1.65 3.34 3.3 3 5 C0.03 4.505 0.03 4.505 -3 4 C-1.75 2 -1.75 2 0 0 Z " fill="#22191F" transform="translate(17,21)"/>
<path d="M0 0 C0.66 0 1.32 0 2 0 C2.66 2.64 3.32 5.28 4 8 C3.01 8.33 2.02 8.66 1 9 C1 7.35 1 5.7 1 4 C-1.97 3.505 -1.97 3.505 -5 3 C-4.360625 2.690625 -3.72125 2.38125 -3.0625 2.0625 C-1.06389179 1.1654837 -1.06389179 1.1654837 0 0 Z " fill="#8E6C4E" transform="translate(19,5)"/>
<path d="M0 0 C1.98 0.495 1.98 0.495 4 1 C4 1.66 4 2.32 4 3 C3.34 3 2.68 3 2 3 C2 3.99 2 4.98 2 6 C1.01 6 0.02 6 -1 6 C-0.67 4.02 -0.34 2.04 0 0 Z " fill="#744E3C" transform="translate(20,24)"/>
<path d="M0 0 C1.32 0 2.64 0 4 0 C3.67 1.32 3.34 2.64 3 4 C2.34 4 1.68 4 1 4 C0.67 4.99 0.34 5.98 0 7 C-1.33332095 4.3333581 -0.67102033 2.83319697 0 0 Z " fill="#492920" transform="translate(15,14)"/>
<path d="" fill="#000000" transform="translate(0,0)"/>
</svg>
